<!DOCTYPE svg PUBLIC "-//W3C//DTD SVG 1.1//EN" "http://www.w3.org/Graphics/SVG/1.1/DTD/svg11.dtd">

<!-- Uploaded to: SVG Repo, www.svgrepo.com, Transformed by: SVG Repo Mixer Tools -->
<svg version="1.1" id="Layer_1" xmlns="http://www.w3.org/2000/svg" xmlns:xlink="http://www.w3.org/1999/xlink" viewBox="0 0 495.44 495.44" xml:space="preserve" width="28px" height="28px" fill="#000000">

<g id="SVGRepo_bgCarrier" stroke-width="0"/>

<g id="SVGRepo_tracerCarrier" stroke-linecap="round" stroke-linejoin="round"/>

<g id="SVGRepo_iconCarrier"> <g> <path style="fill:#EE8700;" d="M247.72,495.44c42.756,0,78.637-29.963,87.756-69.995H247.72V495.44z"/> <path style="fill:#FFA733;" d="M159.964,425.445c9.12,40.032,45,69.995,87.756,69.995v-69.995H159.964z"/> <path style="fill:#FFCD00;" d="M455.22,385.445V328.17l-30-30v-73.54c0-79.3-52.71-148.46-127.5-170.35V50c0-27.57-22.43-50-50-50 v385.445H455.22z"/> <path style="fill:#FFDA44;" d="M247.72,0c-27.57,0-50,22.43-50,50v4.28c-74.79,21.89-127.5,91.05-127.5,170.35v73.54l-30,30v57.275 h207.5V0z"/> <rect x="20.22" y="385.445" style="fill:#FFB655;" width="455" height="40"/> <path style="fill:#FFE477;" d="M451.993,187.696l39.377-7.035C479.48,114.107,440.198,54.564,383.597,17.298l-21.996,33.409 C409.077,81.965,442.025,131.896,451.993,187.696z"/> <path style="fill:#FFEB99;" d="M133.839,50.707l-21.996-33.409C55.242,54.564,15.96,114.107,4.07,180.66l39.377,7.035 C53.415,131.896,86.363,81.965,133.839,50.707z"/> </g> </g>

</svg>