<svg width="24" height="24" viewBox="0 0 24 24" fill="none" xmlns="http://www.w3.org/2000/svg">
<path d="M14.339 19.0013C14.1896 19.0018 14.0419 18.9688 13.907 18.9048C13.772 18.8407 13.6531 18.7473 13.559 18.6313L8.72895 12.6313C8.58187 12.4523 8.50146 12.2279 8.50146 11.9963C8.50146 11.7646 8.58187 11.5402 8.72895 11.3613L13.729 5.36125C13.8987 5.15704 14.1426 5.02861 14.407 5.00423C14.6715 4.97985 14.9347 5.06151 15.139 5.23125C15.3432 5.40099 15.4716 5.6449 15.496 5.90933C15.5204 6.17375 15.4387 6.43704 15.269 6.64125L10.799 12.0013L15.119 17.3613C15.2412 17.508 15.3189 17.6868 15.3428 17.8763C15.3667 18.0659 15.3358 18.2583 15.2537 18.4308C15.1716 18.6034 15.0419 18.7488 14.8798 18.8499C14.7177 18.9509 14.53 19.0035 14.339 19.0013Z" fill="#9E9E9E"/>
</svg>
