<svg xmlns="http://www.w3.org/2000/svg" xmlns:xlink="http://www.w3.org/1999/xlink" width="150" zoomAndPan="magnify" viewBox="0 0 112.5 30.000001" height="40" preserveAspectRatio="xMidYMid meet" version="1.0"><defs><g/><clipPath id="a36b11c62b"><path d="M 12 13 L 27.347656 13 L 27.347656 24 L 12 24 Z M 12 13 " clip-rule="nonzero"/></clipPath><clipPath id="ba2d4f0d36"><path d="M 16 13 L 27.347656 13 L 27.347656 24 L 16 24 Z M 16 13 " clip-rule="nonzero"/></clipPath><clipPath id="cee5545ba2"><path d="M 17 5.957031 L 18 5.957031 L 18 8 L 17 8 Z M 17 5.957031 " clip-rule="nonzero"/></clipPath><clipPath id="fde5554f33"><path d="M 2.667969 13 L 18 13 L 18 24 L 2.667969 24 Z M 2.667969 13 " clip-rule="nonzero"/></clipPath><clipPath id="f8c85f221a"><path d="M 10 18 L 26 18 L 26 27.734375 L 10 27.734375 Z M 10 18 " clip-rule="nonzero"/></clipPath><clipPath id="0145352153"><path d="M 14 18 L 26 18 L 26 27.734375 L 14 27.734375 Z M 14 18 " clip-rule="nonzero"/></clipPath><clipPath id="e8a3df2da7"><path d="M 4 20 L 16 20 L 16 27.734375 L 4 27.734375 Z M 4 20 " clip-rule="nonzero"/></clipPath><clipPath id="cf8783ff33"><path d="M 7 20 L 16 20 L 16 27.734375 L 7 27.734375 Z M 7 20 " clip-rule="nonzero"/></clipPath></defs><g fill="#000000" fill-opacity="1"><g transform="translate(21.294053, 20.677764)"><g><path d="M 7.625 -10.3125 C 7.882812 -11.09375 8.054688 -11.847656 8.140625 -12.578125 C 8.179688 -13.304688 7.695312 -13.648438 6.6875 -13.609375 C 6.425781 -13.566406 6.285156 -13.65625 6.265625 -13.875 C 6.253906 -14.101562 6.394531 -14.265625 6.6875 -14.359375 C 7.5 -14.523438 8.257812 -14.53125 8.96875 -14.375 C 9.675781 -14.21875 10 -13.734375 9.9375 -12.921875 C 9.914062 -12.554688 9.644531 -11.753906 9.125 -10.515625 C 9.332031 -10.523438 9.75 -10.53125 10.375 -10.53125 C 11.9375 -10.457031 12.644531 -9.421875 12.5 -7.421875 C 12.21875 -4.429688 11.410156 -2.269531 10.078125 -0.9375 C 9.335938 -0.175781 8.671875 -0.0234375 8.078125 -0.484375 C 7.492188 -0.941406 6.96875 -1.707031 6.5 -2.78125 C 6.332031 -3.113281 6.304688 -3.390625 6.421875 -3.609375 C 6.535156 -3.835938 6.703125 -3.828125 6.921875 -3.578125 C 7.648438 -2.679688 8.1875 -2.203125 8.53125 -2.140625 C 8.875 -2.085938 9.132812 -2.160156 9.3125 -2.359375 C 10.207031 -3.535156 10.773438 -5.335938 11.015625 -7.765625 C 11.109375 -8.859375 10.859375 -9.414062 10.265625 -9.4375 C 9.703125 -9.425781 9.164062 -9.382812 8.65625 -9.3125 C 7.894531 -7.34375 6.695312 -5.109375 5.0625 -2.609375 C 3.851562 -0.691406 3.0625 0.242188 2.6875 0.203125 C 2.195312 0.148438 1.984375 -0.210938 2.046875 -0.890625 C 2.066406 -1.328125 2.351562 -1.804688 2.90625 -2.328125 C 3.78125 -3.347656 4.816406 -4.867188 6.015625 -6.890625 C 6.546875 -7.835938 6.898438 -8.53125 7.078125 -8.96875 C 6.523438 -8.832031 5.851562 -8.648438 5.0625 -8.421875 C 4.726562 -8.335938 4.472656 -8.300781 4.296875 -8.3125 C 3.390625 -8.3125 2.6875 -9.054688 2.1875 -10.546875 C 2.09375 -10.898438 2.148438 -11.148438 2.359375 -11.296875 C 2.578125 -11.441406 2.773438 -11.351562 2.953125 -11.03125 C 3.222656 -10.445312 3.742188 -10.097656 4.515625 -9.984375 C 4.742188 -9.972656 5.320312 -10.023438 6.25 -10.140625 L 7.140625 -10.265625 Z M 14.375 -5.3125 C 15.664062 -5.488281 16.488281 -5.800781 16.84375 -6.25 C 17.207031 -6.695312 17.125 -7.285156 16.59375 -8.015625 C 16.164062 -8.679688 15.085938 -9.207031 13.359375 -9.59375 C 12.984375 -9.664062 12.847656 -9.851562 12.953125 -10.15625 C 13.054688 -10.46875 13.3125 -10.597656 13.71875 -10.546875 C 15.757812 -10.285156 17.238281 -9.648438 18.15625 -8.640625 C 18.988281 -7.554688 19.171875 -6.660156 18.703125 -5.953125 C 18.234375 -5.242188 17.363281 -4.800781 16.09375 -4.625 C 15.738281 -4.550781 15.171875 -4.492188 14.390625 -4.453125 C 14.054688 -4.421875 13.890625 -4.539062 13.890625 -4.8125 C 13.890625 -5.09375 14.050781 -5.257812 14.375 -5.3125 Z M 14.375 -5.3125 "/></g></g><g transform="translate(42.423997, 20.677764)"><g><path d="M 7.296875 -9.546875 C 8.078125 -10.234375 8.972656 -10.898438 9.984375 -11.546875 C 10.023438 -11.578125 9.96875 -11.625 9.8125 -11.6875 C 8.8125 -12 7.269531 -12.203125 5.1875 -12.296875 C 4.84375 -12.304688 4.6875 -12.457031 4.71875 -12.75 C 4.757812 -13.039062 4.984375 -13.195312 5.390625 -13.21875 C 7.484375 -13.351562 9.195312 -13.300781 10.53125 -13.0625 C 11.863281 -12.820312 12.644531 -12.597656 12.875 -12.390625 C 13.125 -12.117188 13.234375 -11.835938 13.203125 -11.546875 C 13.171875 -11.242188 12.867188 -11.078125 12.296875 -11.046875 C 11.335938 -11.046875 9.835938 -10.347656 7.796875 -8.953125 C 7.535156 -8.753906 7.328125 -8.738281 7.171875 -8.90625 C 7.023438 -9.070312 7.066406 -9.285156 7.296875 -9.546875 Z M 5.28125 -5.953125 C 4.5 -4.429688 4.648438 -3.285156 5.734375 -2.515625 C 6.335938 -2.148438 7.414062 -1.96875 8.96875 -1.96875 C 10.613281 -1.96875 11.96875 -2.144531 13.03125 -2.5 C 13.289062 -2.570312 13.5 -2.609375 13.65625 -2.609375 C 14.050781 -2.609375 14.382812 -2.441406 14.65625 -2.109375 C 14.789062 -1.953125 14.859375 -1.785156 14.859375 -1.609375 C 14.859375 -1.234375 14.609375 -0.992188 14.109375 -0.890625 C 13.015625 -0.566406 11.445312 -0.40625 9.40625 -0.40625 C 7 -0.40625 5.410156 -0.789062 4.640625 -1.5625 C 3.378906 -2.644531 3.300781 -4.1875 4.40625 -6.1875 C 4.625 -6.550781 4.859375 -6.664062 5.109375 -6.53125 C 5.367188 -6.40625 5.425781 -6.210938 5.28125 -5.953125 Z M 5.28125 -5.953125 "/></g></g><g transform="translate(60.665675, 20.677764)"><g><path d="M 2.5625 -11.59375 C 2.90625 -11.21875 3.300781 -11.0625 3.75 -11.125 C 4.007812 -11.132812 6.132812 -11.679688 10.125 -12.765625 C 13.082031 -13.535156 14.742188 -13.941406 15.109375 -13.984375 C 15.554688 -14.015625 15.984375 -13.910156 16.390625 -13.671875 C 16.710938 -13.515625 16.875 -13.289062 16.875 -13 C 16.875 -12.550781 16.546875 -12.289062 15.890625 -12.21875 C 15.722656 -12.207031 15.484375 -12.207031 15.171875 -12.21875 C 14.640625 -12.269531 14.226562 -12.269531 13.9375 -12.21875 C 12.820312 -12.125 11.945312 -11.601562 11.3125 -10.65625 C 9.601562 -8.332031 8.828125 -6.320312 8.984375 -4.625 C 9.097656 -3.582031 9.421875 -2.835938 9.953125 -2.390625 C 10.492188 -1.953125 11.273438 -1.734375 12.296875 -1.734375 C 12.609375 -1.734375 12.972656 -1.78125 13.390625 -1.875 C 13.628906 -1.914062 13.84375 -1.9375 14.03125 -1.9375 C 14.414062 -1.9375 14.757812 -1.816406 15.0625 -1.578125 C 15.375 -1.367188 15.53125 -1.144531 15.53125 -0.90625 C 15.53125 -0.34375 14.75 -0.0625 13.1875 -0.0625 C 9.675781 -0.0625 7.789062 -1.503906 7.53125 -4.390625 C 7.332031 -6.710938 8.460938 -9.148438 10.921875 -11.703125 C 8.492188 -11.078125 6.394531 -10.367188 4.625 -9.578125 C 4.1875 -9.359375 3.875 -9.25 3.6875 -9.25 C 2.851562 -9.164062 2.25 -9.6875 1.875 -10.8125 C 1.800781 -11.1875 1.820312 -11.507812 1.9375 -11.78125 C 2.0625 -12.050781 2.269531 -11.988281 2.5625 -11.59375 Z M 2.5625 -11.59375 "/></g></g><g transform="translate(80.014883, 20.677764)"><g><path d="M 18.28125 -5.171875 C 16.488281 -1.734375 14.40625 -0.015625 12.03125 -0.015625 C 10.757812 -0.015625 9.945312 -0.566406 9.59375 -1.671875 C 9.445312 -2.179688 9.429688 -3.050781 9.546875 -4.28125 C 9.691406 -5.6875 9.5625 -6.390625 9.15625 -6.390625 C 8.425781 -6.390625 7.75 -6.066406 7.125 -5.421875 C 5.894531 -4.179688 4.863281 -2.59375 4.03125 -0.65625 C 3.820312 -0.144531 3.59375 0.109375 3.34375 0.109375 C 3.15625 0.109375 2.984375 0.015625 2.828125 -0.171875 C 2.546875 -0.492188 2.40625 -0.828125 2.40625 -1.171875 C 2.40625 -1.429688 2.582031 -1.890625 2.9375 -2.546875 C 4.6875 -5.710938 6.0625 -8.132812 7.0625 -9.8125 C 8.070312 -11.488281 8.578125 -12.488281 8.578125 -12.8125 C 8.578125 -13.175781 8.375 -13.472656 7.96875 -13.703125 C 7.632812 -13.890625 7.503906 -14.070312 7.578125 -14.25 C 7.660156 -14.4375 7.957031 -14.492188 8.46875 -14.421875 C 9.800781 -13.992188 10.46875 -13.390625 10.46875 -12.609375 C 10.46875 -12.378906 10.285156 -12.015625 9.921875 -11.515625 C 8.941406 -10.179688 7.695312 -8.304688 6.1875 -5.890625 C 7.050781 -7.128906 8.125 -7.75 9.40625 -7.75 C 10.820312 -7.75 11.40625 -6.640625 11.15625 -4.421875 C 11.007812 -3.148438 11.078125 -2.347656 11.359375 -2.015625 C 11.515625 -1.742188 11.800781 -1.609375 12.21875 -1.609375 C 13.800781 -1.609375 15.472656 -2.929688 17.234375 -5.578125 C 17.492188 -5.941406 17.753906 -6.023438 18.015625 -5.828125 C 18.273438 -5.628906 18.363281 -5.410156 18.28125 -5.171875 Z M 18.28125 -5.171875 "/></g></g><g transform="translate(100.25446, 20.677764)"><g><path d="M 4.328125 -5.421875 C 5.265625 -5.421875 6.0625 -5.09375 6.71875 -4.4375 C 7.375 -3.78125 7.703125 -2.984375 7.703125 -2.046875 C 7.703125 -1.097656 7.375 -0.296875 6.71875 0.359375 C 6.0625 1.015625 5.265625 1.34375 4.328125 1.34375 C 3.398438 1.34375 2.601562 1.015625 1.9375 0.359375 C 1.269531 -0.296875 0.9375 -1.097656 0.9375 -2.046875 C 0.9375 -2.984375 1.269531 -3.78125 1.9375 -4.4375 C 2.601562 -5.09375 3.398438 -5.421875 4.328125 -5.421875 Z M 4.328125 0.21875 C 4.941406 0.21875 5.46875 0.00390625 5.90625 -0.421875 C 6.351562 -0.859375 6.578125 -1.398438 6.578125 -2.046875 C 6.578125 -2.660156 6.351562 -3.1875 5.90625 -3.625 C 5.46875 -4.070312 4.941406 -4.296875 4.328125 -4.296875 C 3.703125 -4.296875 3.164062 -4.070312 2.71875 -3.625 C 2.28125 -3.175781 2.0625 -2.648438 2.0625 -2.046875 C 2.0625 -1.421875 2.28125 -0.882812 2.71875 -0.4375 C 3.164062 0 3.703125 0.21875 4.328125 0.21875 Z M 4.328125 0.21875 "/></g></g></g><path fill="#f0f5f7" d="M 5.6875 12.621094 C 5.824219 10.371094 7.679688 8.585938 9.945312 8.585938 C 11.777344 8.585938 13.335938 9.746094 13.945312 11.375 C 15.519531 11.394531 16.792969 12.6875 16.792969 14.28125 C 16.792969 15.882812 15.5 17.183594 13.910156 17.183594 C 13.242188 17.183594 6.453125 17.183594 5.765625 17.183594 C 4.515625 17.183594 3.5 16.160156 3.5 14.902344 C 3.5 13.667969 4.472656 12.664062 5.6875 12.621094 Z M 5.6875 12.621094 " fill-opacity="1" fill-rule="nonzero"/><path fill="#dde9ed" d="M 16.792969 14.28125 C 16.792969 15.441406 16.117188 16.441406 15.140625 16.90625 C 15.316406 16.53125 15.414062 16.109375 15.414062 15.667969 C 15.414062 14.074219 14.140625 12.785156 12.566406 12.765625 C 11.960938 11.132812 10.398438 9.972656 8.570312 9.972656 C 7.742188 9.972656 6.972656 10.210938 6.320312 10.617188 C 7.074219 9.398438 8.414062 8.585938 9.945312 8.585938 C 11.777344 8.585938 13.335938 9.746094 13.945312 11.375 C 15.519531 11.394531 16.792969 12.6875 16.792969 14.28125 Z M 16.792969 14.28125 " fill-opacity="1" fill-rule="nonzero"/><g clip-path="url(#a36b11c62b)"><path fill="#c4e1e8" d="M 24.886719 18.054688 C 24.734375 15.519531 22.644531 13.511719 20.09375 13.511719 C 18.03125 13.511719 16.277344 14.820312 15.59375 16.652344 C 13.820312 16.675781 12.390625 18.128906 12.390625 19.917969 C 12.390625 21.722656 13.84375 23.1875 15.632812 23.1875 L 24.796875 23.1875 C 26.203125 23.1875 27.347656 22.039062 27.347656 20.621094 C 27.347656 19.230469 26.253906 18.101562 24.886719 18.054688 Z M 24.886719 18.054688 " fill-opacity="1" fill-rule="nonzero"/></g><g clip-path="url(#ba2d4f0d36)"><path fill="#a4d5dd" d="M 27.347656 20.617188 C 27.347656 22.039062 26.203125 23.1875 24.796875 23.1875 L 24.597656 23.1875 C 24.785156 22.832031 24.886719 22.425781 24.886719 21.996094 C 24.886719 20.609375 23.792969 19.480469 22.425781 19.433594 C 22.277344 16.898438 20.1875 14.890625 17.632812 14.890625 C 17.289062 14.890625 16.953125 14.929688 16.632812 14.996094 C 17.503906 14.082031 18.730469 13.511719 20.09375 13.511719 C 22.644531 13.511719 24.734375 15.519531 24.886719 18.054688 C 26.253906 18.101562 27.347656 19.230469 27.347656 20.617188 Z M 27.347656 20.617188 " fill-opacity="1" fill-rule="nonzero"/></g><path fill="#f6cb43" d="M 23.328125 15.339844 C 23.328125 18.519531 20.769531 21.097656 17.613281 21.097656 C 14.457031 21.097656 11.898438 18.519531 11.898438 15.339844 C 11.898438 12.160156 14.457031 9.582031 17.613281 9.582031 C 20.769531 9.582031 23.328125 12.160156 23.328125 15.339844 Z M 23.328125 15.339844 " fill-opacity="1" fill-rule="nonzero"/><path fill="#fab03c" d="M 17.613281 21.097656 C 14.457031 21.097656 11.898438 18.519531 11.898438 15.339844 C 11.898438 12.550781 13.867188 10.222656 16.480469 9.695312 C 16.40625 10.0625 16.367188 10.445312 16.367188 10.835938 C 16.367188 14.015625 18.925781 16.59375 22.082031 16.59375 C 22.472656 16.59375 22.851562 16.554688 23.214844 16.480469 C 22.691406 19.113281 20.382812 21.097656 17.613281 21.097656 Z M 17.613281 21.097656 " fill-opacity="1" fill-rule="nonzero"/><path fill="#f8e98e" d="M 26.554688 15.714844 L 25.320312 15.714844 C 25.117188 15.714844 24.949219 15.546875 24.949219 15.339844 C 24.949219 15.132812 25.117188 14.964844 25.320312 14.964844 L 26.554688 14.964844 C 26.757812 14.964844 26.925781 15.132812 26.925781 15.339844 C 26.925781 15.546875 26.757812 15.714844 26.554688 15.714844 Z M 26.554688 15.714844 " fill-opacity="1" fill-rule="nonzero"/><path fill="#f8e98e" d="M 24.289062 11.832031 C 24.160156 11.832031 24.035156 11.765625 23.964844 11.644531 C 23.863281 11.464844 23.925781 11.234375 24.101562 11.132812 L 25.167969 10.511719 C 25.347656 10.410156 25.574219 10.46875 25.679688 10.648438 C 25.78125 10.828125 25.71875 11.058594 25.542969 11.160156 L 24.476562 11.78125 C 24.417969 11.816406 24.351562 11.832031 24.289062 11.832031 Z M 24.289062 11.832031 " fill-opacity="1" fill-rule="nonzero"/><path fill="#f8e98e" d="M 21.46875 8.988281 C 21.402344 8.988281 21.339844 8.972656 21.28125 8.9375 C 21.101562 8.835938 21.042969 8.605469 21.144531 8.425781 L 21.761719 7.351562 C 21.863281 7.171875 22.089844 7.113281 22.269531 7.214844 C 22.449219 7.320312 22.507812 7.546875 22.40625 7.726562 L 21.789062 8.800781 C 21.722656 8.921875 21.597656 8.988281 21.46875 8.988281 Z M 21.46875 8.988281 " fill-opacity="1" fill-rule="nonzero"/><g clip-path="url(#cee5545ba2)"><path fill="#f8e98e" d="M 17.613281 7.949219 C 17.40625 7.949219 17.242188 7.78125 17.242188 7.574219 L 17.242188 6.335938 C 17.242188 6.128906 17.40625 5.960938 17.613281 5.960938 C 17.820312 5.960938 17.984375 6.128906 17.984375 6.335938 L 17.984375 7.574219 C 17.984375 7.78125 17.820312 7.949219 17.613281 7.949219 Z M 17.613281 7.949219 " fill-opacity="1" fill-rule="nonzero"/></g><path fill="#f8e98e" d="M 13.757812 8.988281 C 13.628906 8.988281 13.503906 8.921875 13.4375 8.800781 L 12.820312 7.726562 C 12.71875 7.546875 12.777344 7.320312 12.957031 7.214844 C 13.132812 7.113281 13.363281 7.171875 13.464844 7.351562 L 14.082031 8.425781 C 14.183594 8.605469 14.121094 8.835938 13.945312 8.9375 C 13.886719 8.972656 13.820312 8.988281 13.757812 8.988281 Z M 13.757812 8.988281 " fill-opacity="1" fill-rule="nonzero"/><g clip-path="url(#fde5554f33)"><path fill="#c4e1e8" d="M 15.164062 18.054688 C 15.011719 15.519531 12.925781 13.511719 10.371094 13.511719 C 8.3125 13.511719 6.554688 14.820312 5.871094 16.652344 C 4.097656 16.675781 2.667969 18.128906 2.667969 19.917969 C 2.667969 21.722656 4.121094 23.1875 5.914062 23.1875 L 15.074219 23.1875 C 16.484375 23.1875 17.625 22.039062 17.625 20.617188 C 17.625 19.230469 16.53125 18.101562 15.164062 18.054688 Z M 15.164062 18.054688 " fill-opacity="1" fill-rule="nonzero"/></g><path fill="#a4d5dd" d="M 17.625 20.617188 C 17.625 22.039062 16.484375 23.1875 15.074219 23.1875 L 14.878906 23.1875 C 15.0625 22.832031 15.167969 22.425781 15.167969 21.996094 C 15.167969 20.609375 14.074219 19.480469 12.707031 19.433594 C 12.554688 16.898438 10.464844 14.890625 7.914062 14.890625 C 7.570312 14.890625 7.234375 14.929688 6.910156 14.996094 C 7.78125 14.082031 9.011719 13.511719 10.371094 13.511719 C 12.925781 13.511719 15.011719 15.519531 15.164062 18.054688 C 16.53125 18.101562 17.625 19.230469 17.625 20.617188 Z M 17.625 20.617188 " fill-opacity="1" fill-rule="nonzero"/><g clip-path="url(#f8c85f221a)"><path fill="#f0f5f7" d="M 22.84375 22.601562 C 22.691406 20.066406 20.601562 18.0625 18.050781 18.0625 C 15.992188 18.0625 14.234375 19.367188 13.550781 21.199219 C 11.777344 21.222656 10.347656 22.675781 10.347656 24.46875 C 10.347656 26.273438 11.800781 27.734375 13.589844 27.734375 L 22.753906 27.734375 C 24.160156 27.734375 25.304688 26.585938 25.304688 25.167969 C 25.304688 23.777344 24.210938 22.648438 22.84375 22.601562 Z M 22.84375 22.601562 " fill-opacity="1" fill-rule="nonzero"/></g><g clip-path="url(#0145352153)"><path fill="#dde9ed" d="M 25.304688 25.167969 C 25.304688 26.585938 24.160156 27.734375 22.753906 27.734375 L 22.554688 27.734375 C 22.742188 27.378906 22.84375 26.976562 22.84375 26.546875 C 22.84375 25.15625 21.75 24.027344 20.386719 23.980469 C 20.234375 21.445312 18.144531 19.4375 15.589844 19.4375 C 15.246094 19.4375 14.910156 19.476562 14.589844 19.546875 C 15.460938 18.628906 16.691406 18.0625 18.050781 18.0625 C 20.601562 18.0625 22.691406 20.066406 22.84375 22.601562 C 24.210938 22.648438 25.304688 23.777344 25.304688 25.167969 Z M 25.304688 25.167969 " fill-opacity="1" fill-rule="nonzero"/></g><path fill="#f0f5f7" d="M 21.570312 22.316406 C 21.402344 22.316406 21.25 22.199219 21.210938 22.03125 C 21.167969 21.847656 21.109375 21.671875 21.035156 21.5 C 20.953125 21.308594 21.039062 21.089844 21.226562 21.007812 C 21.417969 20.925781 21.636719 21.011719 21.71875 21.203125 C 21.808594 21.414062 21.878906 21.632812 21.933594 21.855469 C 21.980469 22.054688 21.859375 22.257812 21.660156 22.304688 C 21.628906 22.3125 21.601562 22.316406 21.570312 22.316406 Z M 21.570312 22.316406 " fill-opacity="1" fill-rule="nonzero"/><path fill="#f0f5f7" d="M 20.664062 20.648438 C 20.566406 20.648438 20.46875 20.609375 20.394531 20.535156 C 19.777344 19.882812 18.941406 19.523438 18.050781 19.523438 C 17.84375 19.523438 17.675781 19.355469 17.675781 19.148438 C 17.675781 18.941406 17.84375 18.773438 18.050781 18.773438 C 19.148438 18.773438 20.171875 19.214844 20.933594 20.015625 C 21.074219 20.164062 21.070312 20.402344 20.921875 20.542969 C 20.851562 20.613281 20.757812 20.648438 20.664062 20.648438 Z M 20.664062 20.648438 " fill-opacity="1" fill-rule="nonzero"/><g clip-path="url(#e8a3df2da7)"><path fill="#f0f5f7" d="M 6.46875 24.066406 C 6.578125 22.253906 8.070312 20.820312 9.898438 20.820312 C 11.367188 20.820312 12.625 21.753906 13.113281 23.0625 C 14.378906 23.078125 15.402344 24.117188 15.402344 25.398438 C 15.402344 26.6875 14.363281 27.734375 13.082031 27.734375 C 12.546875 27.734375 7.085938 27.734375 6.535156 27.734375 C 5.527344 27.734375 4.710938 26.914062 4.710938 25.898438 C 4.710938 24.90625 5.492188 24.097656 6.46875 24.066406 Z M 6.46875 24.066406 " fill-opacity="1" fill-rule="nonzero"/></g><g clip-path="url(#cf8783ff33)"><path fill="#dde9ed" d="M 15.402344 25.398438 C 15.402344 26.679688 14.382812 27.71875 13.117188 27.734375 C 13.496094 27.316406 13.726562 26.765625 13.726562 26.15625 C 13.726562 24.875 12.703125 23.835938 11.4375 23.820312 C 10.949219 22.507812 9.691406 21.574219 8.21875 21.574219 C 8.046875 21.574219 7.875 21.585938 7.707031 21.613281 C 8.300781 21.117188 9.066406 20.820312 9.898438 20.820312 C 11.367188 20.820312 12.625 21.753906 13.113281 23.0625 C 14.378906 23.078125 15.402344 24.117188 15.402344 25.398438 Z M 15.402344 25.398438 " fill-opacity="1" fill-rule="nonzero"/></g></svg>