<!DOCTYPE svg PUBLIC "-//W3C//DTD SVG 1.1//EN" "http://www.w3.org/Graphics/SVG/1.1/DTD/svg11.dtd">

<!-- Uploaded to: SVG Repo, www.svgrepo.com, Transformed by: SVG Repo Mixer Tools -->
<svg fill="#23b0d5" height="28px" width="28px" version="1.1" id="Layer_1" xmlns="http://www.w3.org/2000/svg" xmlns:xlink="http://www.w3.org/1999/xlink" viewBox="0 0 452.923 452.923" xml:space="preserve" stroke="#23b0d5">

<g id="SVGRepo_bgCarrier" stroke-width="0"/>

<g id="SVGRepo_tracerCarrier" stroke-linecap="round" stroke-linejoin="round"/>

<g id="SVGRepo_iconCarrier"> <g> <g> <path d="M393.846,305.272c-32.627,0-59.077,25.596-59.077,57.171c0,4.024,0.458,7.93,1.107,11.779l-161.669-32.335 c1.854-7.969,3.024-16.19,3.024-24.704c0-21.67-8.37-41.404-22.068-56.5l122.052-94.411 c28.938,48.712,77.247,79.923,77.247,79.923s98.462-63.524,98.462-150.868c0-52.626-44.083-95.286-98.462-95.286 C300.083,0.041,256,42.701,256,95.327c0,18.997,4.665,36.865,11.955,53.202l-127.886,98.923 c-14.515-10.051-32.245-16.027-51.454-16.027C39.674,231.425,0,269.82,0,317.182c0,76.089,88.717,135.81,88.883,135.7 c4.241-2.8,57.703-39.041,79.302-92.121l174.465,34.895c15.353,32.896,48.143,55.223,50.999,57.226 c0,0,59.274-40.007,59.274-90.44C452.923,330.868,426.473,305.272,393.846,305.272z M354.462,55.622 c22.658,0,41.026,17.776,41.026,39.705c0,21.925-18.368,39.702-41.026,39.702c-22.658,0-41.026-17.776-41.026-39.702 C313.435,73.399,331.804,55.622,354.462,55.622z M88.615,352.916c-20.391,0-36.923-16-36.923-35.734 c0-19.733,16.532-35.733,36.923-35.733c20.391,0,36.923,16,36.923,35.733C125.538,336.916,109.007,352.916,88.615,352.916z M393.846,381.5c-10.876,0-19.692-8.531-19.692-19.057c0-10.525,8.816-19.055,19.692-19.055c10.876,0,19.692,8.531,19.692,19.055 C413.539,372.969,404.722,381.5,393.846,381.5z"/> </g> </g> </g>

</svg>