<svg width="24" height="24" viewBox="0 0 24 24" fill="none" xmlns="http://www.w3.org/2000/svg">
<path d="M9.66105 4.99875C9.81044 4.99824 9.95805 5.03121 10.093 5.09524C10.228 5.15927 10.3469 5.25273 10.441 5.36875L15.271 11.3687C15.4181 11.5477 15.4985 11.7721 15.4985 12.0037C15.4985 12.2354 15.4181 12.4598 15.271 12.6387L10.271 18.6387C10.1013 18.843 9.8574 18.9714 9.59297 18.9958C9.32855 19.0201 9.06526 18.9385 8.86105 18.7687C8.65683 18.599 8.52841 18.3551 8.50403 18.0907C8.47965 17.8262 8.56131 17.563 8.73105 17.3587L13.201 11.9987L8.88105 6.63875C8.75876 6.49196 8.68109 6.31322 8.65721 6.12367C8.63333 5.93413 8.66424 5.7417 8.7463 5.56917C8.82836 5.39665 8.95812 5.25123 9.12023 5.15014C9.28234 5.04905 9.47001 4.99652 9.66105 4.99875Z" fill="black" fill-opacity="0.4"/>
</svg>
